<?xml version="1.0" encoding="UTF-8" standalone="no"?>
<svg
   xmlns:dc="http://purl.org/dc/elements/1.1/"
   xmlns:cc="http://creativecommons.org/ns#"
   xmlns:rdf="http://www.w3.org/1999/02/22-rdf-syntax-ns#"
   xmlns:svg="http://www.w3.org/2000/svg"
   xmlns="http://www.w3.org/2000/svg"
   viewBox="0 0 1889.76 2002.48"
   height="2002.48"
   width="1889.76"
   xml:space="preserve"
   id="svg2"
   version="1.1"><metadata
     id="metadata8"><rdf:RDF><cc:Work
         rdf:about=""><dc:format>image/svg+xml</dc:format><dc:type
           rdf:resource="http://purl.org/dc/dcmitype/StillImage" /></cc:Work></rdf:RDF></metadata><defs
     id="defs6"><clipPath
       id="clipPath18"
       clipPathUnits="userSpaceOnUse"><path
         id="path16"
         d="M 0,1501.856 H 1417.32 V 0 H 0 Z" /></clipPath><clipPath
       id="clipPath266"
       clipPathUnits="userSpaceOnUse"><path
         id="path264"
         d="M 0,1501.856 H 1417.32 V 0 H 0 Z" /></clipPath></defs><g
     transform="matrix(1.3333333,0,0,-1.3333333,0,2002.48)"
     id="g10"><g
       id="g12"><g
         clip-path="url(#clipPath18)"
         id="g14"><g
           transform="translate(877.7334,1064.1948)"
           id="g20"><path
             id="path22"
             style="fill:#f3b900;fill-opacity:1;fill-rule:evenodd;stroke:none"
             d="m 0,0 c 2.255,4.519 7.831,6.226 12.454,3.813 4.625,-2.412 6.545,-8.031 4.288,-12.552 l -83.59,-167.46 -27.051,-11.915 z" /></g><g
           transform="translate(810.8857,887.9961)"
           id="g24"><path
             id="path26"
             style="fill:#3a2114;fill-opacity:1;fill-rule:evenodd;stroke:none"
             d="m 0,0 -224.458,-449.668 c -2.255,-4.519 -7.833,-6.227 -12.456,-3.813 -4.624,2.413 -6.544,8.033 -4.287,12.551 l 7.225,14.474 c 0,0 2.237,8.558 3.521,11.302 1.602,3.417 8.343,12.467 8.343,12.467 l 195.06,390.772 z" /></g><g
           transform="translate(864.6465,1032.9951)"
           id="g28"><path
             id="path30"
             style="fill:#f3c249;fill-opacity:1;fill-rule:evenodd;stroke:none"
             d="m 0,0 c -2.04,-4.09 -2.744,-7.899 -1.569,-8.512 1.174,-0.614 3.782,2.204 5.822,6.293 C 6.294,1.869 6.996,5.682 5.82,6.292 4.647,6.906 2.042,4.088 0,0" /></g><g
           transform="translate(849.9961,1003.6436)"
           id="g32"><path
             id="path34"
             style="fill:#f3c249;fill-opacity:1;fill-rule:evenodd;stroke:none"
             d="m 0,0 c -2.041,-4.087 -2.744,-7.899 -1.57,-8.512 1.175,-0.613 3.782,2.205 5.822,6.293 2.04,4.089 2.744,7.9 1.568,8.513 C 4.647,6.907 2.041,4.089 0,0" /></g><g
           transform="translate(835.9922,975.5918)"
           id="g36"><path
             id="path38"
             style="fill:#f3c249;fill-opacity:1;fill-rule:evenodd;stroke:none"
             d="m 0,0 c -2.041,-4.089 -2.742,-7.901 -1.57,-8.512 1.175,-0.614 3.784,2.204 5.825,6.293 C 6.294,1.869 6.996,5.678 5.822,6.293 4.649,6.907 2.042,4.088 0,0" /></g><g
           transform="translate(820.5635,944.6807)"
           id="g40"><path
             id="path42"
             style="fill:#f3c249;fill-opacity:1;fill-rule:evenodd;stroke:none"
             d="m 0,0 c -2.04,-4.089 -2.743,-7.898 -1.569,-8.511 1.174,-0.614 3.781,2.204 5.822,6.293 2.04,4.088 2.743,7.899 1.57,8.511 C 4.647,6.907 2.041,4.089 0,0" /></g><g
           transform="translate(805.9502,915.4014)"
           id="g44"><path
             id="path46"
             style="fill:#f3c249;fill-opacity:1;fill-rule:evenodd;stroke:none"
             d="m 0,0 c -2.042,-4.087 -2.744,-7.899 -1.57,-8.511 1.173,-0.614 3.781,2.204 5.821,6.294 C 6.291,1.872 6.993,5.681 5.82,6.294 4.646,6.908 2.04,4.09 0,0" /></g><g
           transform="translate(862.8135,1015.2905)"
           id="g48"><path
             id="path50"
             style="fill:#f3c249;fill-opacity:1;fill-rule:evenodd;stroke:none"
             d="m 0,0 c -2.042,-4.089 -2.744,-7.9 -1.569,-8.512 1.173,-0.614 3.78,2.204 5.819,6.293 2.042,4.089 2.744,7.9 1.57,8.512 C 4.647,6.906 2.039,4.088 0,0" /></g><g
           transform="translate(848.1602,985.9395)"
           id="g52"><path
             id="path54"
             style="fill:#f3c249;fill-opacity:1;fill-rule:evenodd;stroke:none"
             d="m 0,0 c -2.04,-4.089 -2.743,-7.9 -1.568,-8.514 1.174,-0.611 3.781,2.207 5.822,6.294 2.041,4.088 2.742,7.9 1.569,8.514 C 4.648,6.904 2.042,4.089 0,0" /></g><g
           transform="translate(834.1582,957.8862)"
           id="g56"><path
             id="path58"
             style="fill:#f3c249;fill-opacity:1;fill-rule:evenodd;stroke:none"
             d="m 0,0 c -2.041,-4.087 -2.742,-7.9 -1.568,-8.514 1.173,-0.611 3.78,2.207 5.82,6.295 C 6.293,1.87 6.996,5.68 5.821,6.293 4.648,6.905 2.041,4.089 0,0" /></g><g
           transform="translate(818.7285,926.9771)"
           id="g60"><path
             id="path62"
             style="fill:#f3c249;fill-opacity:1;fill-rule:evenodd;stroke:none"
             d="m 0,0 c -2.039,-4.088 -2.742,-7.901 -1.567,-8.515 1.173,-0.612 3.78,2.207 5.819,6.295 C 6.294,1.87 6.996,5.679 5.823,6.293 4.649,6.904 2.041,4.087 0,0" /></g><g
           transform="translate(804.1152,897.6987)"
           id="g64"><path
             id="path66"
             style="fill:#f3c249;fill-opacity:1;fill-rule:evenodd;stroke:none"
             d="M 0,0 C -2.042,-4.09 -2.743,-7.902 -1.569,-8.515 -0.396,-9.127 2.21,-6.309 4.253,-2.22 6.292,1.868 6.995,5.679 5.82,6.29 4.647,6.903 2.04,4.088 0,0" /></g><g
           transform="translate(796.0146,1087.6899)"
           id="g68"><path
             id="path70"
             style="fill:#f3b900;fill-opacity:1;fill-rule:evenodd;stroke:none"
             d="M 0,0 C 1.15,4.917 6.182,7.867 11.236,6.587 16.294,5.309 19.46,0.285 18.309,-4.634 l -42.64,-182.242 -23.568,-17.842 z" /></g><g
           transform="translate(771.6836,900.814)"
           id="g72"><path
             id="path74"
             style="fill:#3a2114;fill-opacity:1;fill-rule:evenodd;stroke:none"
             d="m 0,0 -114.5,-489.36 c -1.15,-4.918 -6.182,-7.867 -11.238,-6.587 -5.056,1.28 -8.223,6.304 -7.071,11.222 l 3.686,15.751 c 0,0 0.2,8.843 0.815,11.81 0.768,3.695 5.237,14.058 5.237,14.058 l 99.503,425.264 z" /></g><g
           transform="translate(790.4902,1054.311)"
           id="g76"><path
             id="path78"
             style="fill:#f3c249;fill-opacity:1;fill-rule:evenodd;stroke:none"
             d="M 0,0 C -1.04,-4.45 -0.845,-8.319 0.439,-8.645 1.725,-8.971 3.609,-5.626 4.65,-1.177 5.691,3.272 5.494,7.144 4.209,7.467 2.926,7.793 1.042,4.45 0,0" /></g><g
           transform="translate(783.0176,1022.3687)"
           id="g80"><path
             id="path82"
             style="fill:#f3c249;fill-opacity:1;fill-rule:evenodd;stroke:none"
             d="m 0,0 c -1.042,-4.448 -0.845,-8.319 0.438,-8.644 1.287,-0.325 3.17,3.019 4.211,7.467 1.04,4.45 0.845,8.321 -0.441,8.646 C 2.926,7.794 1.04,4.45 0,0" /></g><g
           transform="translate(775.873,991.8408)"
           id="g84"><path
             id="path86"
             style="fill:#f3c249;fill-opacity:1;fill-rule:evenodd;stroke:none"
             d="M 0,0 C -1.041,-4.45 -0.843,-8.321 0.438,-8.644 1.725,-8.97 3.611,-5.625 4.652,-1.176 5.691,3.272 5.495,7.141 4.211,7.467 2.928,7.793 1.042,4.45 0,0" /></g><g
           transform="translate(768.0039,958.2012)"
           id="g88"><path
             id="path90"
             style="fill:#f3c249;fill-opacity:1;fill-rule:evenodd;stroke:none"
             d="m 0,0 c -1.041,-4.45 -0.845,-8.318 0.438,-8.643 1.285,-0.326 3.17,3.018 4.211,7.468 C 5.689,3.273 5.494,7.144 4.211,7.469 2.925,7.794 1.04,4.451 0,0" /></g><g
           transform="translate(760.5488,926.3379)"
           id="g92"><path
             id="path94"
             style="fill:#f3c249;fill-opacity:1;fill-rule:evenodd;stroke:none"
             d="m 0,0 c -1.042,-4.448 -0.845,-8.319 0.439,-8.643 1.284,-0.326 3.17,3.018 4.209,7.468 C 5.689,3.274 5.492,7.143 4.209,7.469 2.924,7.794 1.04,4.451 0,0" /></g><g
           transform="translate(792.7969,1036.6616)"
           id="g96"><path
             id="path98"
             style="fill:#f3c249;fill-opacity:1;fill-rule:evenodd;stroke:none"
             d="M 0,0 C -1.042,-4.449 -0.845,-8.32 0.439,-8.644 1.725,-8.97 3.608,-5.626 4.648,-1.176 5.69,3.273 5.493,7.144 4.209,7.468 2.926,7.793 1.039,4.449 0,0" /></g><g
           transform="translate(785.3213,1004.7197)"
           id="g100"><path
             id="path102"
             style="fill:#f3c249;fill-opacity:1;fill-rule:evenodd;stroke:none"
             d="M 0,0 C -1.041,-4.45 -0.844,-8.32 0.441,-8.646 1.725,-8.969 3.61,-5.625 4.652,-1.177 5.692,3.271 5.494,7.143 4.211,7.469 2.928,7.791 1.042,4.45 0,0" /></g><g
           transform="translate(778.1797,974.1904)"
           id="g104"><path
             id="path106"
             style="fill:#f3c249;fill-opacity:1;fill-rule:evenodd;stroke:none"
             d="M 0,0 C -1.042,-4.449 -0.844,-8.32 0.44,-8.646 1.724,-8.969 3.608,-5.625 4.649,-1.177 5.69,3.273 5.494,7.142 4.209,7.467 2.927,7.792 1.04,4.45 0,0" /></g><g
           transform="translate(770.3076,940.5532)"
           id="g108"><path
             id="path110"
             style="fill:#f3c249;fill-opacity:1;fill-rule:evenodd;stroke:none"
             d="M 0,0 C -1.039,-4.449 -0.843,-8.322 0.442,-8.647 1.726,-8.972 3.61,-5.626 4.65,-1.179 5.691,3.272 5.495,7.142 4.212,7.467 2.929,7.791 1.042,4.448 0,0" /></g><g
           transform="translate(762.8535,908.6904)"
           id="g112"><path
             id="path114"
             style="fill:#f3c249;fill-opacity:1;fill-rule:evenodd;stroke:none"
             d="m 0,0 c -1.041,-4.451 -0.843,-8.322 0.44,-8.647 1.284,-0.325 3.168,3.019 4.21,7.47 C 5.691,3.271 5.494,7.141 4.21,7.465 2.927,7.79 1.041,4.448 0,0" /></g><g
           transform="translate(708.499,1095.9663)"
           id="g116"><path
             id="path118"
             style="fill:#f3b900;fill-opacity:1;fill-rule:evenodd;stroke:none"
             d="m 0,0 c -0.001,5.05 4.225,9.069 9.438,8.977 5.216,-0.091 9.444,-4.26 9.445,-9.313 l 0.054,-187.163 -18.876,-22.748 z" /></g><g
           transform="translate(727.4365,908.4673)"
           id="g120"><path
             id="path122"
             style="fill:#3a2114;fill-opacity:1;fill-rule:evenodd;stroke:none"
             d="m 0,0 0.144,-502.577 c 0.002,-5.05 -4.225,-9.07 -9.44,-8.977 -5.215,0.093 -9.444,4.262 -9.444,9.313 l -0.004,16.177 c 0,0 -1.823,8.655 -1.901,11.685 -0.094,3.772 1.893,14.881 1.893,14.881 l -0.124,436.75 z" /></g><g
           transform="translate(710.7344,1062.2075)"
           id="g124"><path
             id="path126"
             style="fill:#f3c249;fill-opacity:1;fill-rule:evenodd;stroke:none"
             d="M 0,0 C 0.003,-4.57 1.075,-8.293 2.4,-8.316 3.725,-8.341 4.798,-4.654 4.797,-0.085 4.795,4.484 3.72,8.209 2.395,8.23 1.071,8.255 -0.001,4.57 0,0" /></g><g
           transform="translate(710.7441,1029.4023)"
           id="g128"><path
             id="path130"
             style="fill:#f3c249;fill-opacity:1;fill-rule:evenodd;stroke:none"
             d="M 0,0 C 0.001,-4.568 1.075,-8.292 2.399,-8.316 3.726,-8.339 4.797,-4.654 4.796,-0.085 4.794,4.484 3.721,8.208 2.395,8.232 1.071,8.256 -0.001,4.57 0,0" /></g><g
           transform="translate(710.752,998.0498)"
           id="g132"><path
             id="path134"
             style="fill:#f3c249;fill-opacity:1;fill-rule:evenodd;stroke:none"
             d="M 0,0 C 0.002,-4.57 1.078,-8.294 2.399,-8.316 3.725,-8.34 4.8,-4.654 4.798,-0.084 4.795,4.484 3.722,8.206 2.396,8.231 1.073,8.256 0,4.57 0,0" /></g><g
           transform="translate(710.7637,963.502)"
           id="g136"><path
             id="path138"
             style="fill:#f3c249;fill-opacity:1;fill-rule:evenodd;stroke:none"
             d="M 0,0 C 0.001,-4.57 1.075,-8.292 2.398,-8.315 3.724,-8.339 4.797,-4.654 4.795,-0.084 4.793,4.485 3.72,8.208 2.396,8.232 1.07,8.256 -0.002,4.57 0,0" /></g><g
           transform="translate(710.7734,930.7783)"
           id="g140"><path
             id="path142"
             style="fill:#f3c249;fill-opacity:1;fill-rule:evenodd;stroke:none"
             d="M 0,0 C 0.001,-4.569 1.075,-8.292 2.399,-8.315 3.723,-8.34 4.797,-4.654 4.794,-0.084 4.793,4.486 3.718,8.208 2.395,8.232 1.069,8.256 -0.003,4.571 0,0" /></g><g
           transform="translate(717.0059,1045.5493)"
           id="g144"><path
             id="path146"
             style="fill:#f3c249;fill-opacity:1;fill-rule:evenodd;stroke:none"
             d="m 0,0 c 0.001,-4.57 1.075,-8.294 2.4,-8.315 1.325,-0.025 2.397,3.66 2.394,8.23 0,4.569 -1.075,8.293 -2.398,8.316 C 1.071,8.255 -0.003,4.568 0,0" /></g><g
           transform="translate(717.0137,1012.7441)"
           id="g148"><path
             id="path150"
             style="fill:#f3c249;fill-opacity:1;fill-rule:evenodd;stroke:none"
             d="M 0,0 C 0.002,-4.569 1.076,-8.293 2.401,-8.317 3.725,-8.339 4.798,-4.653 4.798,-0.085 4.796,4.484 3.72,8.208 2.396,8.232 1.073,8.253 -0.001,4.571 0,0" /></g><g
           transform="translate(717.0234,981.3906)"
           id="g152"><path
             id="path154"
             style="fill:#f3c249;fill-opacity:1;fill-rule:evenodd;stroke:none"
             d="M 0,0 C 0.001,-4.569 1.077,-8.293 2.401,-8.317 3.726,-8.339 4.797,-4.654 4.796,-0.085 4.794,4.484 3.721,8.207 2.396,8.231 1.073,8.254 -0.001,4.57 0,0" /></g><g
           transform="translate(717.0322,946.8442)"
           id="g156"><path
             id="path158"
             style="fill:#f3c249;fill-opacity:1;fill-rule:evenodd;stroke:none"
             d="M 0,0 C 0.003,-4.568 1.078,-8.294 2.403,-8.317 3.727,-8.341 4.799,-4.654 4.797,-0.086 4.795,4.485 3.722,8.207 2.397,8.232 1.074,8.253 0,4.569 0,0" /></g><g
           transform="translate(717.043,914.1216)"
           id="g160"><path
             id="path162"
             style="fill:#f3c249;fill-opacity:1;fill-rule:evenodd;stroke:none"
             d="M 0,0 C 0.001,-4.571 1.077,-8.295 2.401,-8.319 3.725,-8.342 4.797,-4.656 4.796,-0.085 4.795,4.483 3.72,8.206 2.396,8.229 1.072,8.252 -0.002,4.568 0,0" /></g><g
           transform="translate(565.0811,1064.1948)"
           id="g164"><path
             id="path166"
             style="fill:#f3b900;fill-opacity:1;fill-rule:evenodd;stroke:none"
             d="m 0,0 c -2.255,4.519 -7.832,6.226 -12.454,3.813 -4.626,-2.412 -6.545,-8.031 -4.288,-12.552 l 83.589,-167.46 27.052,-11.915 z" /></g><g
           transform="translate(631.9282,887.9961)"
           id="g168"><path
             id="path170"
             style="fill:#3a2114;fill-opacity:1;fill-rule:evenodd;stroke:none"
             d="m 0,0 224.458,-449.668 c 2.255,-4.519 7.834,-6.227 12.457,-3.813 4.624,2.413 6.543,8.033 4.287,12.551 l -7.226,14.474 c 0,0 -2.237,8.558 -3.521,11.302 -1.602,3.417 -8.343,12.467 -8.343,12.467 L 27.052,-11.915 Z" /></g><g
           transform="translate(578.168,1032.9951)"
           id="g172"><path
             id="path174"
             style="fill:#f3c249;fill-opacity:1;fill-rule:evenodd;stroke:none"
             d="M 0,0 C 2.04,-4.09 2.744,-7.899 1.569,-8.512 0.395,-9.126 -2.213,-6.308 -4.253,-2.219 -6.294,1.869 -6.997,5.682 -5.821,6.292 -4.648,6.906 -2.042,4.088 0,0" /></g><g
           transform="translate(592.8179,1003.6436)"
           id="g176"><path
             id="path178"
             style="fill:#f3c249;fill-opacity:1;fill-rule:evenodd;stroke:none"
             d="M 0,0 C 2.042,-4.087 2.744,-7.899 1.57,-8.512 0.395,-9.125 -2.211,-6.307 -4.251,-2.219 -6.292,1.87 -6.996,5.681 -5.82,6.294 -4.647,6.907 -2.041,4.089 0,0" /></g><g
           transform="translate(606.8218,975.5918)"
           id="g180"><path
             id="path182"
             style="fill:#f3c249;fill-opacity:1;fill-rule:evenodd;stroke:none"
             d="M 0,0 C 2.041,-4.089 2.742,-7.901 1.57,-8.512 0.395,-9.126 -2.214,-6.308 -4.254,-2.219 -6.293,1.869 -6.996,5.678 -5.822,6.293 -4.649,6.907 -2.042,4.088 0,0" /></g><g
           transform="translate(622.2505,944.6807)"
           id="g184"><path
             id="path186"
             style="fill:#f3c249;fill-opacity:1;fill-rule:evenodd;stroke:none"
             d="M 0,0 C 2.041,-4.089 2.743,-7.898 1.57,-8.511 0.395,-9.125 -2.212,-6.307 -4.252,-2.218 -6.292,1.87 -6.996,5.681 -5.823,6.293 -4.647,6.907 -2.041,4.089 0,0" /></g><g
           transform="translate(636.8643,915.4014)"
           id="g188"><path
             id="path190"
             style="fill:#f3c249;fill-opacity:1;fill-rule:evenodd;stroke:none"
             d="M 0,0 C 2.042,-4.087 2.744,-7.899 1.57,-8.511 0.397,-9.125 -2.211,-6.307 -4.251,-2.217 -6.292,1.872 -6.993,5.681 -5.82,6.294 -4.646,6.908 -2.04,4.09 0,0" /></g><g
           transform="translate(580.001,1015.2905)"
           id="g192"><path
             id="path194"
             style="fill:#f3c249;fill-opacity:1;fill-rule:evenodd;stroke:none"
             d="M 0,0 C 2.042,-4.089 2.745,-7.9 1.569,-8.512 0.395,-9.126 -2.211,-6.308 -4.25,-2.219 -6.292,1.87 -6.995,5.681 -5.821,6.293 -4.647,6.906 -2.039,4.088 0,0" /></g><g
           transform="translate(594.6538,985.9395)"
           id="g196"><path
             id="path198"
             style="fill:#f3c249;fill-opacity:1;fill-rule:evenodd;stroke:none"
             d="M 0,0 C 2.041,-4.089 2.743,-7.9 1.568,-8.514 0.394,-9.125 -2.213,-6.307 -4.254,-2.22 -6.294,1.868 -6.996,5.68 -5.823,6.294 -4.648,6.904 -2.042,4.089 0,0" /></g><g
           transform="translate(608.6558,957.8862)"
           id="g200"><path
             id="path202"
             style="fill:#f3c249;fill-opacity:1;fill-rule:evenodd;stroke:none"
             d="M 0,0 C 2.041,-4.087 2.743,-7.9 1.568,-8.514 0.395,-9.125 -2.211,-6.307 -4.251,-2.219 -6.292,1.87 -6.996,5.68 -5.821,6.293 -4.648,6.905 -2.041,4.089 0,0" /></g><g
           transform="translate(624.0854,926.9771)"
           id="g204"><path
             id="path206"
             style="fill:#f3c249;fill-opacity:1;fill-rule:evenodd;stroke:none"
             d="M 0,0 C 2.039,-4.088 2.743,-7.901 1.568,-8.515 0.394,-9.127 -2.212,-6.308 -4.252,-2.22 -6.293,1.87 -6.997,5.679 -5.823,6.293 -4.649,6.904 -2.041,4.087 0,0" /></g><g
           transform="translate(638.6997,897.6987)"
           id="g208"><path
             id="path210"
             style="fill:#f3c249;fill-opacity:1;fill-rule:evenodd;stroke:none"
             d="M 0,0 C 2.041,-4.09 2.742,-7.902 1.569,-8.515 0.395,-9.127 -2.211,-6.309 -4.253,-2.22 -6.293,1.868 -6.995,5.679 -5.821,6.29 -4.648,6.903 -2.041,4.088 0,0" /></g><g
           transform="translate(646.7998,1087.6899)"
           id="g212"><path
             id="path214"
             style="fill:#f3b900;fill-opacity:1;fill-rule:evenodd;stroke:none"
             d="M 0,0 C -1.151,4.917 -6.182,7.867 -11.237,6.587 -16.294,5.309 -19.46,0.285 -18.309,-4.634 l 42.64,-182.242 23.568,-17.842 z" /></g><g
           transform="translate(671.1309,900.814)"
           id="g216"><path
             id="path218"
             style="fill:#3a2114;fill-opacity:1;fill-rule:evenodd;stroke:none"
             d="m 0,0 114.5,-489.36 c 1.149,-4.918 6.182,-7.867 11.238,-6.587 5.056,1.28 8.223,6.304 7.071,11.222 l -3.687,15.751 c 0,0 -0.199,8.843 -0.814,11.81 -0.769,3.695 -5.237,14.058 -5.237,14.058 L 23.568,-17.842 Z" /></g><g
           transform="translate(652.3242,1054.311)"
           id="g220"><path
             id="path222"
             style="fill:#f3c249;fill-opacity:1;fill-rule:evenodd;stroke:none"
             d="m 0,0 c 1.04,-4.45 0.845,-8.319 -0.44,-8.645 -1.285,-0.326 -3.17,3.019 -4.211,7.468 -1.04,4.449 -0.844,8.321 0.442,8.644 C -2.926,7.793 -1.042,4.45 0,0" /></g><g
           transform="translate(659.7969,1022.3687)"
           id="g224"><path
             id="path226"
             style="fill:#f3c249;fill-opacity:1;fill-rule:evenodd;stroke:none"
             d="m 0,0 c 1.042,-4.448 0.845,-8.319 -0.438,-8.644 -1.287,-0.325 -3.171,3.019 -4.211,7.467 -1.041,4.45 -0.845,8.321 0.441,8.646 C -2.926,7.794 -1.041,4.45 0,0" /></g><g
           transform="translate(666.9414,991.8408)"
           id="g228"><path
             id="path230"
             style="fill:#f3c249;fill-opacity:1;fill-rule:evenodd;stroke:none"
             d="M 0,0 C 1.041,-4.45 0.842,-8.321 -0.439,-8.644 -1.725,-8.97 -3.611,-5.625 -4.652,-1.176 -5.691,3.272 -5.495,7.141 -4.211,7.467 -2.928,7.793 -1.042,4.45 0,0" /></g><g
           transform="translate(674.8105,958.2012)"
           id="g232"><path
             id="path234"
             style="fill:#f3c249;fill-opacity:1;fill-rule:evenodd;stroke:none"
             d="M 0,0 C 1.041,-4.45 0.845,-8.318 -0.438,-8.643 -1.723,-8.969 -3.609,-5.625 -4.649,-1.175 -5.69,3.273 -5.494,7.144 -4.211,7.469 -2.925,7.794 -1.041,4.451 0,0" /></g><g
           transform="translate(682.2651,926.3379)"
           id="g236"><path
             id="path238"
             style="fill:#f3c249;fill-opacity:1;fill-rule:evenodd;stroke:none"
             d="m 0,0 c 1.042,-4.448 0.845,-8.319 -0.439,-8.643 -1.283,-0.326 -3.17,3.018 -4.209,7.468 -1.041,4.449 -0.844,8.318 0.44,8.644 C -2.924,7.794 -1.04,4.451 0,0" /></g><g
           transform="translate(650.0176,1036.6616)"
           id="g240"><path
             id="path242"
             style="fill:#f3c249;fill-opacity:1;fill-rule:evenodd;stroke:none"
             d="M 0,0 C 1.042,-4.449 0.845,-8.32 -0.44,-8.644 -1.725,-8.97 -3.609,-5.626 -4.648,-1.176 -5.69,3.273 -5.493,7.144 -4.209,7.468 -2.926,7.793 -1.04,4.449 0,0" /></g><g
           transform="translate(657.4927,1004.7197)"
           id="g244"><path
             id="path246"
             style="fill:#f3c249;fill-opacity:1;fill-rule:evenodd;stroke:none"
             d="m 0,0 c 1.041,-4.45 0.844,-8.32 -0.441,-8.646 -1.284,-0.323 -3.169,3.021 -4.211,7.469 -1.04,4.448 -0.842,8.32 0.441,8.646 C -2.927,7.791 -1.042,4.45 0,0" /></g><g
           transform="translate(664.6348,974.1904)"
           id="g248"><path
             id="path250"
             style="fill:#f3c249;fill-opacity:1;fill-rule:evenodd;stroke:none"
             d="m 0,0 c 1.042,-4.449 0.844,-8.32 -0.441,-8.646 -1.283,-0.323 -3.168,3.021 -4.208,7.469 -1.041,4.45 -0.845,8.319 0.44,8.644 C -2.927,7.792 -1.041,4.45 0,0" /></g><g
           transform="translate(672.5063,940.5532)"
           id="g252"><path
             id="path254"
             style="fill:#f3c249;fill-opacity:1;fill-rule:evenodd;stroke:none"
             d="M 0,0 C 1.04,-4.449 0.843,-8.322 -0.442,-8.647 -1.725,-8.972 -3.61,-5.626 -4.65,-1.179 -5.691,3.272 -5.495,7.142 -4.212,7.467 -2.928,7.791 -1.042,4.448 0,0" /></g><g
           transform="translate(679.9609,908.6904)"
           id="g256"><path
             id="path258"
             style="fill:#f3c249;fill-opacity:1;fill-rule:evenodd;stroke:none"
             d="m 0,0 c 1.041,-4.451 0.843,-8.322 -0.441,-8.647 -1.283,-0.325 -3.168,3.019 -4.21,7.47 -1.04,4.448 -0.843,8.318 0.441,8.642 C -2.927,7.79 -1.041,4.448 0,0" /></g></g></g><g
       id="g260"><g
         clip-path="url(#clipPath266)"
         id="g262"><g
           transform="translate(1149.8525,79.5889)"
           id="g268"><path
             id="path270"
             style="fill:none;stroke:#b0b0b0;stroke-width:5.19500017;stroke-linecap:butt;stroke-linejoin:miter;stroke-miterlimit:10;stroke-dasharray:none;stroke-opacity:1"
             d="m 0,0 v -18.522 c 0,-6.024 4.931,-10.882 10.953,-10.794" /></g><g
           transform="translate(1185.4229,60.0176)"
           id="g272"><path
             id="path274"
             style="fill:none;stroke:#b0b0b0;stroke-width:5.19500017;stroke-linecap:butt;stroke-linejoin:miter;stroke-miterlimit:10;stroke-dasharray:none;stroke-opacity:1"
             d="m 0,0 c 0,-5.383 -4.363,-9.746 -9.746,-9.746 -5.382,0 -9.745,4.363 -9.745,9.746 0,5.382 4.363,9.745 9.745,9.745 C -4.363,9.745 0,5.382 0,0 Z" /></g><g
           transform="translate(1213.7813,60.0176)"
           id="g276"><path
             id="path278"
             style="fill:none;stroke:#b0b0b0;stroke-width:5.19500017;stroke-linecap:butt;stroke-linejoin:miter;stroke-miterlimit:10;stroke-dasharray:none;stroke-opacity:1"
             d="m 0,0 c 0,-5.383 -4.363,-9.746 -9.746,-9.746 -5.382,0 -9.745,4.363 -9.745,9.746 0,5.382 4.363,9.745 9.745,9.745 C -4.363,9.745 0,5.382 0,0 Z" /></g><g
           transform="translate(1213.7813,47.1504)"
           id="g280"><path
             id="path282"
             style="fill:none;stroke:#b0b0b0;stroke-width:5.19500017;stroke-linecap:butt;stroke-linejoin:miter;stroke-miterlimit:10;stroke-dasharray:none;stroke-opacity:1"
             d="m 0,0 c 0,-5.383 -4.363,-9.746 -9.746,-9.746 -5.382,0 -9.745,4.363 -9.745,9.746" /></g><g
           transform="translate(1327.2158,47.1504)"
           id="g284"><path
             id="path286"
             style="fill:none;stroke:#b0b0b0;stroke-width:5.19500017;stroke-linecap:butt;stroke-linejoin:miter;stroke-miterlimit:10;stroke-dasharray:none;stroke-opacity:1"
             d="m 0,0 c 0,-5.383 -4.363,-9.746 -9.745,-9.746 -5.383,0 -9.746,4.363 -9.746,9.746" /></g><g
           transform="translate(1270.499,47.1504)"
           id="g288"><path
             id="path290"
             style="fill:none;stroke:#b0b0b0;stroke-width:5.19500017;stroke-linecap:butt;stroke-linejoin:miter;stroke-miterlimit:10;stroke-dasharray:none;stroke-opacity:1"
             d="m 0,0 c 0,-5.383 -4.363,-9.746 -9.746,-9.746 -5.382,0 -9.745,4.363 -9.745,9.746" /></g><g
           transform="translate(1242.1396,60.0176)"
           id="g292"><path
             id="path294"
             style="fill:none;stroke:#b0b0b0;stroke-width:5.19500017;stroke-linecap:butt;stroke-linejoin:miter;stroke-miterlimit:10;stroke-dasharray:none;stroke-opacity:1"
             d="m 0,0 c 0,-5.383 -4.363,-9.746 -9.745,-9.746 -5.383,0 -9.746,4.363 -9.746,9.746 0,5.382 4.363,9.745 9.746,9.745 C -4.363,9.745 0,5.382 0,0 Z" /></g><g
           transform="translate(1270.499,60.0176)"
           id="g296"><path
             id="path298"
             style="fill:none;stroke:#b0b0b0;stroke-width:5.19500017;stroke-linecap:butt;stroke-linejoin:miter;stroke-miterlimit:10;stroke-dasharray:none;stroke-opacity:1"
             d="m 0,0 c 0,-5.383 -4.363,-9.746 -9.746,-9.746 -5.382,0 -9.745,4.363 -9.745,9.746" /></g><g
           transform="translate(1298.8574,60.0176)"
           id="g300"><path
             id="path302"
             style="fill:none;stroke:#b0b0b0;stroke-width:5.19500017;stroke-linecap:butt;stroke-linejoin:miter;stroke-miterlimit:10;stroke-dasharray:none;stroke-opacity:1"
             d="m 0,0 c 0,-5.383 -4.363,-9.746 -9.745,-9.746 -5.383,0 -9.746,4.363 -9.746,9.746 0,5.382 4.363,9.745 9.746,9.745 C -4.363,9.745 0,5.382 0,0 Z" /></g><g
           transform="translate(1327.2158,60.0176)"
           id="g304"><path
             id="path306"
             style="fill:none;stroke:#b0b0b0;stroke-width:5.19500017;stroke-linecap:butt;stroke-linejoin:miter;stroke-miterlimit:10;stroke-dasharray:none;stroke-opacity:1"
             d="m 0,0 c 0,-5.383 -4.363,-9.746 -9.745,-9.746 -5.383,0 -9.746,4.363 -9.746,9.746 0,5.382 4.363,9.745 9.746,9.745 C -4.363,9.745 0,5.382 0,0 Z" /></g><g
           transform="translate(1355.5752,60.0176)"
           id="g308"><path
             id="path310"
             style="fill:none;stroke:#b0b0b0;stroke-width:5.19500017;stroke-linecap:butt;stroke-linejoin:miter;stroke-miterlimit:10;stroke-dasharray:none;stroke-opacity:1"
             d="m 0,0 c 0,-5.383 -4.363,-9.746 -9.746,-9.746 -5.382,0 -9.745,4.363 -9.745,9.746 0,5.382 4.363,9.745 9.745,9.745 C -4.363,9.745 0,5.382 0,0 Z" /></g><g
           transform="translate(1270.499,72.0186)"
           id="g312"><path
             id="path314"
             style="fill:none;stroke:#b0b0b0;stroke-width:5.19500017;stroke-linecap:butt;stroke-linejoin:miter;stroke-miterlimit:10;stroke-dasharray:none;stroke-opacity:1"
             d="M 0,0 V -24.868" /></g><g
           transform="translate(1251.0078,72.0186)"
           id="g316"><path
             id="path318"
             style="fill:none;stroke:#b0b0b0;stroke-width:5.19500017;stroke-linecap:butt;stroke-linejoin:miter;stroke-miterlimit:10;stroke-dasharray:none;stroke-opacity:1"
             d="M 0,0 V -11.961" /></g></g></g></g></svg>